<?xml version="1.0" encoding="UTF-8" standalone="no"?>
<!-- Created with Inkscape (http://www.inkscape.org/) -->

<svg
   version="1.1"
   id="svg2"
   width="2933.3333"
   height="2933.3333"
   viewBox="0 0 2933.3333 2933.3333"
   sodipodi:docname="corner-web.eps"
   xmlns:inkscape="http://www.inkscape.org/namespaces/inkscape"
   xmlns:sodipodi="http://sodipodi.sourceforge.net/DTD/sodipodi-0.dtd"
   xmlns="http://www.w3.org/2000/svg"
   xmlns:svg="http://www.w3.org/2000/svg">
  <defs
     id="defs6" />
  <sodipodi:namedview
     id="namedview4"
     pagecolor="#ffffff"
     bordercolor="#000000"
     borderopacity="0.25"
     inkscape:showpageshadow="2"
     inkscape:pageopacity="0.0"
     inkscape:pagecheckerboard="0"
     inkscape:deskcolor="#d1d1d1" />
  <g
     id="g8"
     inkscape:groupmode="layer"
     inkscape:label="ink_ext_XXXXXX"
     transform="matrix(1.3333333,0,0,-1.3333333,0,2933.3333)">
    <g
       id="g10"
       transform="scale(0.1)">

      <!-- <path -->
      <!--    d="M 22000,0 H 0 V 22000 H 22000 V 0" -->
      <!--    style="fill:#ffffff;fill-opacity:1;fill-rule:nonzero;stroke:none" -->
      <!--    id="path12" /> -->

      <!-- <path -->
      <!--    d="m 9379.67,14623.4 c -256.66,-619.7 -292.03,-1234 -264.93,-1687.6 l -734.12,734.1 c -54.3,476.6 -0.73,914 159.66,1301.2 160.47,387.4 431.93,734.5 807.26,1032.9 H 10385.7 C 9823.65,15506.5 9529.38,14984.9 9379.67,14623.4 Z M 7311.09,12554.8 c -619.68,-256.7 -1079.05,-666 -1380.64,-1005.9 v 1038.2 c 298.58,375.3 645.77,646.8 1032.99,807.1 387.36,160.5 824.81,214 1301.2,159.6 l 734.07,-734 c -749.24,45.5 -1326.17,-115.2 -1687.62,-265 z m -2925.39,0 c -619.71,256.7 -1233.98,292.1 -1687.59,265 l 734.12,734.1 c 476.56,54.3 913.99,0.7 1301.19,-159.7 387.35,-160.4 734.52,-431.9 1032.93,-807.3 v -1038.1 c -497.58,562 -1019.19,856.3 -1380.65,1006 z m -2068.57,2068.6 c -256.72,619.7 -666.06,1079 -1005.97,1380.6 h 1038.2 c 375.38,-298.5 646.81,-645.7 807.18,-1032.9 160.43,-387.4 213.97,-824.8 159.56,-1301.3 l -734.06,-734 c 45.56,749.2 -115.18,1326.2 -264.91,1687.6 z m 0,2925.4 c 256.65,619.7 292.03,1234 264.93,1687.6 l 734.12,-734.1 c 54.3,-476.6 0.73,-914 -159.67,-1301.2 -160.46,-387.4 -431.93,-734.5 -807.28,-1033 H 1311.12 c 562.02,497.6 856.3,1019.3 1006.01,1380.7 z m 638.23,1795.6 c 624.76,0 1111.41,140.9 1430.34,273 619.68,256.7 1079.06,666 1380.65,1006 V 19585.2 C 5467.77,19209.8 5120.57,18938.3 4733.36,18778 4346,18617.5 3908.54,18564 3432.13,18618.4 l -733.96,734 c 88.12,-5.4 173.89,-8 257.19,-8 z m 4355.74,273 c 510.03,-211.3 1016.37,-272.6 1432.51,-272.6 89.58,0 174.8,2.9 255.17,7.7 l -734.18,-734.2 c -476.57,-54.3 -914.02,-0.7 -1301.22,159.7 -387.34,160.4 -734.52,431.9 -1032.93,807.3 v 1038.1 c 497.58,-562 1019.19,-856.3 1380.65,-1006 z m 146.04,-5024 c 9.54,271.8 63.06,527.3 159.6,760.3 96.52,233.1 239.3,451.5 424.66,650.3 h 1162.56 c -342.92,-291.8 -594.13,-626.8 -747.9,-998 -153.72,-371.1 -213,-785.6 -176.94,-1234.6 z M 5930.45,13893 c 198.97,185.5 417.46,328.3 650.45,424.8 233.04,96.6 488.48,150.1 760.16,159.6 l 822.05,-822.1 c -448.82,36.2 -863.36,-23.1 -1234.55,-176.8 -371.09,-153.7 -706.14,-404.9 -998.11,-747.9 z m -1574.75,584.4 c 271.84,-9.6 527.31,-63.1 760.27,-159.6 233.07,-96.5 451.54,-239.3 650.38,-424.7 v -1162.6 c -291.82,342.9 -626.85,594.2 -998.04,747.9 -371.07,153.8 -785.62,213 -1234.58,177 z M 3655.35,16004 c 185.47,-198.9 328.27,-417.4 424.73,-650.4 96.57,-233 150.09,-488.5 159.61,-760.2 l -822.05,-822 c 36.13,448.8 -23.13,863.3 -176.87,1234.5 -153.69,371.1 -404.89,706.2 -747.86,998.1 z m 584.3,1574.8 c -9.54,-271.8 -63.05,-527.3 -159.59,-760.3 -96.51,-233 -239.3,-451.5 -424.68,-650.4 H 2492.82 c 342.92,291.9 594.15,626.9 747.92,998.1 153.72,371.1 213,785.6 176.94,1234.6 z m 1526.7,700.4 c -198.96,-185.5 -417.45,-328.3 -650.45,-424.8 -233.06,-96.5 -488.51,-150.1 -760.19,-159.6 l -822.12,822.1 c 85.07,-6.8 168.94,-10.3 251.5,-10.3 352.95,0 682.32,62.5 983.15,187.1 371.08,153.7 706.14,404.9 998.11,747.9 z m 1574.77,-584.3 c -271.83,9.5 -527.31,63 -760.29,159.5 -233.07,96.6 -451.55,239.3 -650.38,424.7 v 1162.6 c 291.82,-342.9 626.85,-594.2 998.04,-747.9 300.86,-124.7 630.26,-187.2 983.45,-187.2 82.45,0 166.24,3.5 251.23,10.3 z m 700.35,-1526.8 c -185.48,199 -328.29,417.5 -424.76,650.5 -96.56,233.1 -150.08,488.5 -159.6,760.2 l 822.05,822 c -36.13,-448.8 23.13,-863.3 176.87,-1234.5 153.69,-371.1 404.91,-706.2 747.89,-998.2 z M 6622.3,15428.2 c 7.77,109.4 31.36,212.7 70.9,308 39.46,95.4 95.66,185.2 167.35,267.8 h 1058.11 c -165.75,-189.9 -295.43,-396.4 -386.15,-615.4 -90.75,-219 -145.01,-456.7 -162.15,-708.4 z M 5930.45,15074 c 82.77,71.7 172.61,127.9 267.91,167.3 95.36,39.6 198.72,63.1 307.9,70.9 l 748.01,-748 c -251.56,-17.1 -489.23,-71.4 -708.26,-162.2 -219,-90.6 -425.45,-220.4 -615.56,-386.2 z m -739.9,238.2 c 109.32,-7.8 212.7,-31.4 307.97,-70.9 95.35,-39.5 185.17,-95.7 267.83,-167.4 v -1058.1 c -190,165.8 -396.43,295.5 -615.49,386.2 -218.97,90.7 -456.67,145 -708.37,162.1 z m -354.29,691.8 c 71.77,-82.7 127.97,-172.6 167.37,-267.9 39.53,-95.3 63.11,-198.7 70.86,-307.9 l -748.01,-748 c -17.14,251.6 -71.41,489.2 -162.16,708.3 -90.68,219 -220.39,425.4 -386.23,615.5 z m 238.23,740 c -7.77,-109.3 -31.36,-212.7 -70.89,-308 -39.47,-95.4 -95.67,-185.2 -167.36,-267.9 H 3778.12 c 165.77,190 295.45,396.5 386.16,615.5 90.75,219 145.01,456.7 162.16,708.4 z m 691.86,354.3 c -82.77,-71.8 -172.62,-128 -267.91,-167.4 -95.37,-39.6 -198.74,-63.1 -307.92,-70.9 l -748.01,748 c 251.55,17.2 489.22,71.4 708.28,162.2 219.01,90.7 425.46,220.4 615.56,386.2 z m 739.92,-238.3 c -109.32,7.8 -212.71,31.4 -307.99,70.9 -95.35,39.5 -185.18,95.7 -267.83,167.4 v 1058.1 c 189.99,-165.8 396.42,-295.5 615.49,-386.2 218.99,-90.7 456.7,-145 708.39,-162.1 z m 354.28,-691.9 c -71.77,82.8 -127.98,172.7 -167.39,268 -39.52,95.3 -63.1,198.7 -70.85,307.9 l 748.01,748 c 17.14,-251.6 71.41,-489.2 162.16,-708.3 90.68,-219 220.39,-425.4 386.25,-615.6 z m -321.38,-656.7 -492.68,492.6 h 696.76 c -55.42,-73.2 -100.42,-151.1 -134.28,-232.9 -33.91,-81.7 -57.2,-168.7 -69.8,-259.7 z m -608.72,376.6 492.67,-492.7 c -90.96,-12.6 -177.88,-35.8 -259.63,-69.7 -81.78,-33.8 -159.73,-78.9 -233.04,-134.3 z m -164.1,0 v -696.7 c -73.23,55.4 -151.15,100.4 -232.93,134.2 -81.72,33.9 -168.67,57.2 -259.74,69.8 z m -608.73,772.8 492.69,-492.7 h -696.77 c 55.42,73.3 100.43,151.2 134.28,233 33.91,81.7 57.2,168.7 69.8,259.7 z m 608.73,-376.6 -492.7,492.7 c 90.97,12.6 177.9,35.8 259.66,69.7 81.77,33.8 159.73,78.9 233.04,134.3 z m 164.1,0 v 696.8 c 73.22,-55.5 151.14,-100.5 232.92,-134.3 81.74,-33.9 168.7,-57.2 259.77,-69.8 z m 678.48,117 c 33.81,-81.8 78.84,-159.7 134.32,-233.1 h -696.76 l 492.69,492.7 c 12.59,-90.9 35.86,-177.9 69.75,-259.6 z M 5087.87,15771 c -33.81,81.8 -78.83,159.7 -134.31,233 h 696.75 l -492.69,-492.6 c -12.58,90.9 -35.86,177.9 -69.75,259.6 z m 4291.8,1777.8 c 256.73,-619.7 666.03,-1079.1 1006.03,-1380.7 H 9347.46 c -375.38,298.6 -646.83,645.8 -807.2,1033 -160.43,387.4 -213.97,824.8 -159.57,1301.3 l 734.06,734 c -45.55,-749.2 115.2,-1326.1 264.92,-1687.6 z M 10711.2,16168.1 H 10525 c -345.6,291.7 -790.63,762.7 -1061.1,1415.6 -270.5,653 -288.83,1300.7 -250.61,1751.2 l 131.66,131.7 c 32.04,32 32.04,84 0,116 -32.05,32.1 -84,32.1 -116.04,0 L 9097.25,19451 c -450.62,-38.2 -1098.37,-19.8 -1751.27,250.6 -653.02,270.5 -1123.97,715.5 -1415.53,1061.1 v 186.2 c 0,45.3 -36.73,82.1 -82.05,82.1 -45.32,0 -82.05,-36.8 -82.05,-82.1 v -186.2 c -291.66,-345.6 -762.68,-790.6 -1415.54,-1061.1 -653.02,-270.5 -1300.72,-288.8 -1751.28,-250.6 l -131.64,131.6 c -32.05,32.1 -84,32.1 -116.04,0 -32.05,-32 -32.05,-84 0,-116 l 131.67,-131.7 c 38.15,-450.6 19.76,-1098.3 -250.62,-1751.2 -270.48,-653 -715.51,-1124 -1061.14,-1415.6 H 985.586 c -45.316,0 -82.051,-36.7 -82.051,-82 0,-45.3 36.735,-82.1 82.051,-82.1 H 1171.8 c 345.62,-291.6 790.63,-762.6 1061.11,-1415.5 270.49,-653 288.82,-1300.7 250.59,-1751.3 l -131.65,-131.6 c -32.05,-32.1 -32.05,-84 0,-116 16.02,-16.1 37.02,-24.1 58.02,-24.1 21,0 42,8 58.02,24.1 l 131.68,131.6 c 450.61,38.2 1098.34,19.8 1751.25,-250.6 653.02,-270.5 1123.97,-715.5 1415.53,-1061.1 v -186.2 c 0,-45.3 36.73,-82.1 82.05,-82.1 45.32,0 82.05,36.8 82.05,82.1 v 186.2 c 291.65,345.6 762.67,790.6 1415.54,1061.1 652.99,270.5 1300.69,288.8 1751.25,250.6 l 131.67,-131.6 c 16.02,-16.1 37.01,-24.1 58.01,-24.1 21.01,0 42,8 58.03,24.1 32.04,32 32.04,83.9 0,116 l -131.67,131.7 c -38.16,450.6 -19.77,1098.3 250.62,1751.2 270.47,653 715.5,1124 1061.1,1415.5 h 186.2 c 45.3,0 82.1,36.8 82.1,82.1 0,45.3 -36.8,82 -82.1,82" -->
      <!--    style="fill:#ffffff;fill-opacity:1;fill-rule:nonzero;stroke:none" -->
      <!--    id="path14" /> -->
      <path
         d="m 19640.2,19282.7 c -383.6,-474.6 -691.2,-988.1 -914.1,-1526.4 -222.9,-538.1 -368.5,-1118.7 -432.9,-1725.5 -43.9,-414.2 -50.1,-841.6 -18.9,-1273.6 l -1309.5,1309.5 c -102.8,845.5 -11.1,1621 272.8,2306.3 284,685.5 767.5,1298.6 1437.9,1823.4 h 1851.7 c -327.4,-283.2 -625.2,-589.8 -887,-913.7 z M 16859.5,14597 c -606.9,-64.4 -1187.5,-210 -1725.7,-433 -538.2,-222.9 -1051.7,-530.5 -1526.3,-914.1 -323.9,-261.8 -630.5,-559.6 -913.8,-887 v 1851.9 c 525.1,670.4 1138.2,1154 1823.5,1437.8 685.6,283.9 1461.1,375.5 2306.3,272.6 l 1309.4,-1309.4 c -431.9,31.3 -859.2,25.1 -1273.4,-18.8 z m -3200.6,4492.8 c -180.5,-18.7 -352.3,-61.4 -512.4,-127.8 -160.2,-66.2 -311.9,-157.4 -452.8,-272 v 1365 z m 269.3,654 c -66.5,-160.1 -109.2,-331.9 -127.9,-512.6 l -965.2,965.2 h 1365 c -114.4,-140.8 -205.6,-292.4 -271.9,-452.6 z m -1234.5,-3258.4 c 353.9,336 744.1,593.8 1161.1,766.5 417.1,172.8 875.3,266.5 1362.9,279 l 1470.4,-1470.3 c -808,77.5 -1552.7,-22.1 -2216.8,-297.2 -663.8,-274.9 -1260.9,-731 -1777.6,-1357.2 z m 2408.3,1161.3 c -460.5,-23.6 -894.7,-118.9 -1293.1,-284 -398.3,-164.9 -772.7,-404.6 -1115.2,-713.6 v 1882.8 c 152.9,138.2 320.3,245.5 498.7,319.2 178.4,74 372.6,116.5 578.3,126.9 z m 3382,2549.7 c -626.1,-516.5 -1082.2,-1113.5 -1357.3,-1777.5 -275,-663.8 -374.7,-1408.6 -297.3,-2216.8 l -1470.2,1470.2 c 12.6,487.9 106.3,946.2 279.1,1363.1 172.7,417.1 430.4,807.3 766.3,1161 z m -2243.1,0 c -308.9,-342.3 -548.5,-716.6 -713.5,-1115.1 -165,-398.3 -260.3,-832.5 -283.9,-1293.3 l -1331.4,1331.4 c 10.4,205.9 52.9,400.2 126.9,578.5 73.9,178.4 181.1,345.8 319.2,498.5 z m -3647.2,-8420.7 c 55.2,0 100,44.7 100,100 v 301.9 c 303.6,364.4 636,693.5 989.3,979 465.6,376.4 969.2,678 1496.7,896.6 527.6,218.5 1097,361.3 1692.4,424.4 451.7,47.9 919.5,50.3 1391.8,7.2 l 213.3,-213.4 c 19.5,-19.5 45.1,-29.2 70.7,-29.2 25.6,0 51.2,9.7 70.7,29.2 39.1,39.1 39.1,102.4 0,141.5 l -213.3,213.3 c -43,472.4 -40.6,940.2 7.3,1391.9 63.1,595.4 205.9,1164.8 424.4,1692.3 218.5,527.6 520.1,1031.3 896.5,1496.9 285.6,353.2 614.7,685.7 979,989.1 h 301.9 c 55.2,0 100,44.8 100,100 0,55.3 -44.8,100 -100,100 h -8420.7 c -0.3,0 -0.6,0 -0.9,0 -3,0 -6,-0.2 -9,-0.5 -1.6,-0.1 -3.1,-0.4 -4.7,-0.6 -1.6,-0.3 -3.3,-0.5 -5,-0.8 -1.7,-0.3 -3.4,-0.8 -5.1,-1.3 -1.4,-0.3 -2.9,-0.6 -4.3,-1.1 -1.7,-0.5 -3.3,-1.1 -5,-1.7 -1.4,-0.5 -2.9,-1 -4.3,-1.6 -1.5,-0.6 -3,-1.4 -4.5,-2.1 -1.4,-0.7 -2.9,-1.3 -4.3,-2.1 -1.5,-0.7 -2.8,-1.6 -4.2,-2.4 -1.4,-0.9 -2.9,-1.7 -4.2,-2.6 -1.6,-1 -3,-2.2 -4.5,-3.3 -1.1,-0.8 -2.3,-1.6 -3.4,-2.5 -2.5,-2.1 -5,-4.3 -7.3,-6.6 0,0 0,0 -0.1,-0.1 0,0 -0.1,-0.1 -0.1,-0.2 -2.3,-2.2 -4.4,-4.6 -6.5,-7.1 -1,-1.2 -1.8,-2.5 -2.7,-3.7 -1.1,-1.4 -2.1,-2.7 -3.1,-4.1 -1,-1.5 -1.8,-3 -2.7,-4.6 -0.8,-1.2 -1.6,-2.5 -2.3,-3.8 -0.8,-1.6 -1.5,-3.1 -2.3,-4.7 -0.6,-1.4 -1.3,-2.8 -1.9,-4.2 -0.6,-1.5 -1.2,-3.1 -1.7,-4.6 -0.6,-1.6 -1.1,-3.1 -1.6,-4.6 -0.5,-1.6 -0.8,-3.2 -1.2,-4.8 -0.4,-1.5 -0.9,-3.1 -1.2,-4.7 -0.4,-1.9 -0.6,-3.7 -0.8,-5.6 -0.2,-1.4 -0.5,-2.7 -0.6,-4.1 -0.4,-3.3 -0.5,-6.6 -0.5,-9.9 v -8420.7 c 0,-55.3 44.7,-100 100,-100"
         style="fill:#ffffff;fill-opacity:1;fill-rule:nonzero;stroke:none"
         id="path16" />
      <!-- <path -->
      <!--    d="m 9688.75,4696.6 c -142.82,-533 -63.88,-917.3 8.53,-1120.4 l -720.14,415.7 c -40.31,196.1 -60.69,498.4 42.61,883.9 103.31,385.6 272.14,637.3 405.07,786.9 h 831.58 C 10092,5522.9 9831.58,5229.6 9688.75,4696.6 Z M 8659.73,2914.3 c -390.2,-390.2 -513.95,-762.4 -552.83,-974.6 l -415.77,720.1 c 63.1,189.9 196.63,462 478.86,744.2 282.24,282.3 554.29,415.8 744.21,478.9 l 720.12,-415.8 c -212.17,-38.9 -584.39,-162.6 -974.59,-552.8 z M 6877.42,1885.3 C 6344.39,1742.4 6051.11,1482 5911.36,1317.7 v 831.5 c 149.6,132.9 401.28,301.8 786.8,405.1 385.54,103.3 687.9,82.9 883.92,42.6 l 415.76,-720.2 c -203.19,72.5 -587.41,151.4 -1120.42,8.6 z m -2058.04,0 c -533.03,142.8 -917.24,63.9 -1120.42,-8.6 l 415.75,720.2 c 196.02,40.3 498.39,60.7 883.93,-42.6 385.52,-103.3 637.19,-272.2 786.8,-405.1 v -831.5 c -139.75,164.3 -433.03,424.7 -966.06,567.6 z m -1782.32,1029 c -390.22,390.2 -762.44,513.9 -974.61,552.8 l 720.15,415.8 c 189.91,-63.1 461.96,-196.6 744.2,-478.9 282.23,-282.2 415.76,-554.3 478.86,-744.2 l -415.77,-720.1 c -38.88,212.2 -162.63,584.4 -552.83,974.6 z M 2008.04,4696.6 c -142.83,533 -403.3,826.3 -567.61,966.1 h 831.55 c 132.92,-149.6 301.76,-401.3 405.06,-786.9 103.3,-385.5 82.92,-687.8 42.61,-883.9 l -720.14,-415.7 c 72.42,203.1 151.35,587.4 8.53,1120.4 z m 0,2058 c 142.83,533.1 63.88,917.3 -8.53,1120.5 l 720.14,-415.8 c 40.31,-196 60.69,-498.4 -42.61,-883.9 -103.31,-385.6 -272.14,-637.2 -405.06,-786.8 h -831.55 c 164.31,139.7 424.78,433 567.61,966 z M 3037.06,8537 c 390.2,390.2 513.95,762.4 552.83,974.5 l 415.77,-720.1 c -63.1,-189.9 -196.63,-462 -478.86,-744.2 -282.24,-282.2 -554.29,-415.8 -744.2,-478.8 l -720.12,415.7 c 212.18,38.9 584.4,162.7 974.58,552.9 z m 1206.99,949.4 c 165.59,0 358.17,21.4 575.33,79.6 533.03,142.8 826.31,403.3 966.06,567.6 V 9302 c -149.6,-132.9 -401.27,-301.7 -786.81,-405 -385.54,-103.3 -687.91,-83 -883.92,-42.6 l -415.77,720.1 c 120.38,-42.9 304.23,-88.1 545.11,-88.1 z m 2633.37,79.6 c 217.2,-58.2 409.7,-79.6 575.32,-79.6 240.87,0 424.73,45.2 545.12,88.1 l -415.78,-720.1 c -196.02,-40.4 -498.39,-60.7 -883.92,42.6 -385.54,103.3 -637.2,272.1 -786.8,405 v 831.6 c 139.75,-164.3 433.03,-424.8 966.06,-567.6 z M 8659.73,8536.9 c 390.19,-390.1 762.41,-513.9 974.58,-552.8 l -720.12,-415.7 c -189.91,63 -461.95,196.6 -744.2,478.8 -282.23,282.3 -415.76,554.3 -478.86,744.2 l 415.77,720.1 c 38.88,-212.1 162.63,-584.3 552.83,-974.6 z m 209.12,-4482.4 -684.37,395.1 c -9.17,201.1 15.62,412.8 73.87,630.3 58.27,217.4 142.7,413.2 251.17,582.8 h 790.24 c -129.55,-161.9 -277.74,-408.8 -372.41,-762.1 -94.67,-353.3 -89.76,-641.2 -58.5,-846.1 z m -1635.36,-602 c 92.59,178.7 219.95,349.7 379.12,508.9 159.17,159.2 330.19,286.5 508.92,379.1 l 684.36,-395.1 C 8612.76,3870 8360.99,3730.3 8102.34,3471.7 7843.7,3213 7704.01,2961.3 7628.61,2768.1 Z m -1322.13,-388 c 169.53,108.5 365.34,192.9 582.79,251.2 217.42,58.2 429.23,83 630.28,73.8 l 395.12,-684.3 c -204.96,31.2 -492.84,36.1 -846.15,-58.5 -353.3,-94.7 -600.17,-242.9 -762.04,-372.5 z m -1338.99,325 c 201.07,9.2 412.85,-15.6 630.28,-73.8 217.44,-58.3 413.25,-142.7 582.79,-251.2 v -790.3 c -161.87,129.6 -408.74,277.8 -762.04,372.5 -353.32,94.6 -641.2,89.7 -846.15,58.5 z m -997.11,951 c 178.73,-92.6 349.76,-219.9 508.92,-379.1 159.17,-159.2 286.53,-330.2 379.13,-508.9 l -395.12,-684.4 c -75.41,193.2 -215.1,444.9 -473.74,703.6 -258.65,258.6 -510.42,398.3 -703.54,473.7 z m -747.31,3056.3 684.37,-395.1 c 9.16,-201.1 -15.63,-412.9 -73.88,-630.3 -58.27,-217.5 -142.7,-413.3 -251.17,-582.8 h -790.24 c 129.55,161.8 277.74,408.7 372.41,762 94.68,353.3 89.77,641.2 58.51,846.2 z m 1635.36,601.9 C 4370.7,7820 4243.34,7649 4084.18,7489.8 3925.01,7330.7 3753.98,7203.3 3575.27,7110.7 l -684.36,395.1 c 193.12,75.4 444.89,215.1 703.54,473.8 258.64,258.6 398.33,510.4 473.74,703.5 z m 1322.13,388 c -169.54,-108.4 -365.35,-192.9 -582.79,-251.1 -217.43,-58.3 -429.23,-83.1 -630.28,-73.9 l -395.12,684.4 c 79.1,-12.1 170.52,-20.3 273.34,-20.3 163.57,0 355.88,20.6 572.81,78.8 353.31,94.6 600.17,242.8 762.04,372.4 z m 1338.99,-325 c -201.06,-9.2 -412.86,15.6 -630.28,73.9 -217.45,58.2 -413.26,142.7 -582.79,251.1 V 9177 c 161.86,-129.6 408.73,-277.8 762.04,-372.4 216.95,-58.2 409.23,-78.8 572.8,-78.8 102.81,0 194.23,8.2 273.34,20.3 z m 997.09,-951 c -178.71,92.6 -349.74,220 -508.91,379.1 -159.16,159.2 -286.52,330.2 -379.12,508.9 l 395.12,684.4 c 75.4,-193.1 215.09,-444.9 473.73,-703.5 258.66,-258.7 510.42,-398.4 703.54,-473.8 z m -34.3,-2605 -659.82,381 c 10.25,129.4 33.54,262.7 69.56,397.2 36.02,134.4 82.54,261.6 138.36,378.8 h 761.9 c -98.56,-165.6 -176.25,-352.7 -231.27,-558.1 -55.02,-205.3 -81.32,-406.2 -78.73,-598.9 z M 6796.39,4209.6 c 73.59,106.9 160.43,210.8 258.84,309.2 98.4,98.4 202.26,185.2 309.22,258.8 l 659.81,-380.9 c -168.12,-94.1 -328.98,-217.3 -479.3,-367.6 -150.32,-150.4 -273.56,-311.2 -367.63,-479.3 z m -885.03,-270.9 c 117.16,55.8 244.3,102.3 378.77,138.4 134.42,36 267.79,59.3 397.2,69.5 l 380.94,-659.8 c -192.64,2.6 -393.54,-23.7 -598.89,-78.7 -205.35,-55.1 -392.51,-132.7 -558.02,-231.3 z m -901.9,207.9 c 129.41,-10.2 262.78,-33.5 397.21,-69.5 134.47,-36.1 261.61,-82.6 378.77,-138.4 v -761.9 c -165.52,98.6 -352.68,176.2 -558.03,231.3 -205.34,55 -406.27,81.3 -598.89,78.7 z m -677.11,631 c 106.95,-73.6 210.81,-160.4 309.22,-258.8 98.39,-98.4 185.24,-202.3 258.84,-309.2 l -380.95,-659.8 c -94.07,168.1 -217.31,328.9 -367.63,479.3 -150.32,150.3 -311.18,273.5 -479.3,367.6 z m -722.78,2167.9 659.82,-380.9 c -10.25,-129.4 -33.53,-262.8 -69.55,-397.2 -36.03,-134.5 -82.55,-261.6 -138.37,-378.8 h -761.89 c 98.55,165.5 176.24,352.7 231.26,558 55.02,205.3 81.33,406.3 78.73,598.9 z m 1290.84,296.2 c -73.59,-107 -160.44,-210.8 -258.84,-309.2 -98.44,-98.5 -202.3,-185.3 -309.22,-258.9 l -659.82,381 c 168.12,94 328.98,217.3 479.3,367.6 150.31,150.3 273.55,311.1 367.63,479.3 z m 885.03,270.8 c -117.2,-55.8 -244.35,-102.3 -378.77,-138.3 -134.44,-36 -267.81,-59.3 -397.21,-69.6 l -380.9,659.8 c 8.58,-0.2 17.16,-0.3 25.77,-0.3 184.73,0 376.91,26.5 573.08,79.1 205.35,55 392.51,132.7 558.03,231.2 z m 901.89,-207.9 c -129.4,10.3 -262.77,33.6 -397.2,69.6 -134.43,36 -261.57,82.5 -378.77,138.3 v 761.9 c 165.51,-98.5 352.67,-176.2 558.02,-231.2 196.19,-52.6 388.34,-79.1 573.09,-79.1 8.6,0 17.19,0.1 25.76,0.3 z m 677.11,-631 c -106.92,73.6 -210.78,160.4 -309.21,258.8 -98.42,98.5 -185.27,202.3 -258.84,309.3 l 380.94,659.8 c 94.08,-168.2 217.32,-329 367.63,-479.3 150.33,-150.3 311.18,-273.6 479.3,-367.6 z m -28.26,-1734.3 -641.04,370.1 c 11,59.2 24.48,119 40.42,178.5 15.94,59.5 34.17,118 54.22,174.8 h 740.21 c -49.91,-110.9 -92.07,-229.5 -125.43,-354 -33.38,-124.6 -56.17,-248.4 -68.38,-369.4 z m -962.56,2.5 c 39.11,45.8 80.69,90.8 124.23,134.4 43.55,43.5 88.6,85.1 134.34,124.2 l 641.03,-370.1 c -98.67,-71.1 -194.48,-152.7 -285.64,-243.9 -91.16,-91.1 -172.79,-186.9 -243.86,-285.6 z m -462.26,-157.6 c 56.78,20.1 115.31,38.3 174.75,54.3 59.45,15.9 119.26,29.4 178.45,40.4 l 370.1,-641.1 c -120.98,-12.2 -244.77,-35 -369.29,-68.3 -124.56,-33.4 -243.16,-75.6 -354.01,-125.5 z m -479.13,94.7 c 59.2,-11 119.01,-24.5 178.45,-40.4 59.45,-16 117.99,-34.2 174.76,-54.3 V 4044 c -110.85,49.9 -229.45,92.1 -354.01,125.5 -124.53,33.3 -248.32,56.1 -369.3,68.3 z m -367.62,321.5 c 45.73,-39.1 90.79,-80.7 134.34,-124.2 43.54,-43.6 85.12,-88.6 124.23,-134.4 l -370.11,-641 c -71.08,98.7 -152.71,194.5 -243.86,285.6 -91.15,91.2 -186.97,172.8 -285.64,243.9 z m -704,1311.5 641.04,-370.1 c -11,-59.2 -24.48,-119 -40.41,-178.5 -15.94,-59.4 -34.17,-118 -54.23,-174.7 H 4166.8 c 49.91,110.8 92.07,229.4 125.45,354 33.36,124.5 56.15,248.3 68.36,369.3 z m 962.57,-2.5 c -39.11,-45.7 -80.69,-90.8 -124.23,-134.3 -43.52,-43.5 -88.57,-85.1 -134.34,-124.3 l -641.04,370.1 c 98.65,71.1 194.46,152.7 285.64,243.9 91.17,91.2 172.79,187 243.86,285.6 z m 462.26,157.6 c -56.77,-20.1 -115.31,-38.3 -174.76,-54.2 -59.44,-16 -119.25,-29.4 -178.45,-40.4 l -370.1,641 c 120.97,12.2 244.76,35 369.3,68.4 124.53,33.3 243.13,75.5 354.01,125.4 z m 479.12,-94.6 c -59.19,11 -119,24.4 -178.45,40.4 -59.44,15.9 -117.97,34.1 -174.75,54.2 v 740.2 c 110.88,-49.9 229.48,-92.1 354.01,-125.4 124.53,-33.4 248.32,-56.2 369.3,-68.4 z m 367.62,-321.6 c -45.76,39.2 -90.82,80.8 -134.33,124.3 -43.54,43.5 -85.12,88.6 -124.23,134.3 l 370.1,641 c 71.06,-98.6 152.69,-194.4 243.86,-285.6 91.18,-91.2 186.99,-172.8 285.64,-243.9 z m -24.61,-890.8 -524.2,302.7 h 605.3 c -16.56,-49.1 -31.9,-99.2 -45.52,-150 -13.61,-50.9 -25.39,-101.9 -35.58,-152.7 z M 6020.4,5553.6 6544.62,5251 c -38.87,-34.3 -77.21,-70 -114.42,-107.2 -37.2,-37.2 -72.93,-75.5 -107.14,-114.4 z m -109.04,-63 302.65,-524.2 c -50.8,-10.2 -101.86,-21.9 -152.66,-35.5 -50.79,-13.6 -100.9,-29 -149.99,-45.6 z m -125.92,0 v -605.3 c -49.09,16.6 -99.2,32 -150,45.6 -50.8,13.6 -101.86,25.3 -152.65,35.5 z m -109.05,63 -302.66,-524.2 c -34.21,38.9 -69.93,77.2 -107.13,114.4 -37.22,37.2 -75.55,73 -114.43,107.2 z m -587.17,537.6 524.22,-302.6 h -605.32 c 16.57,49 31.9,99.2 45.52,150 13.62,50.8 25.39,101.8 35.58,152.6 z m 587.16,-193.6 -524.2,302.7 c 38.89,34.2 77.23,69.9 114.42,107.1 37.2,37.2 72.92,75.6 107.13,114.4 z m 109.06,63 -302.65,524.2 c 50.79,10.2 101.85,22 152.65,35.6 50.8,13.6 100.91,28.9 150,45.5 z m 125.92,0 v 605.3 c 49.09,-16.6 99.2,-31.9 149.99,-45.5 50.8,-13.6 101.86,-25.4 152.66,-35.6 z m 109.05,-63 302.65,524.2 c 34.21,-38.9 69.94,-77.2 107.14,-114.4 37.18,-37.2 75.52,-72.9 114.42,-107.1 z m 622.74,41 c 13.62,-50.8 28.95,-101 45.52,-150 h -605.32 l 524.22,302.6 c 10.19,-50.8 21.97,-101.8 35.58,-152.6 z M 5053.64,5512.7 c -13.62,50.8 -28.96,100.9 -45.52,150 h 605.31 L 5089.22,5360 c -10.19,50.8 -21.97,101.8 -35.58,152.7 z m 2350.91,629.9 c 33.37,-124.5 75.53,-243.1 125.45,-354 h -740.22 c -20.06,56.7 -38.29,115.3 -54.22,174.7 -15.94,59.5 -29.42,119.3 -40.42,178.5 l 641.04,370.1 c 12.21,-121 35,-244.8 68.37,-369.3 z M 4292.24,5308.7 c -33.37,124.5 -75.53,243.1 -125.44,354 h 740.21 c 20.06,-56.8 38.28,-115.3 54.23,-174.8 15.93,-59.5 29.41,-119.3 40.41,-178.5 l -641.04,-370.1 c -12.21,121 -35,244.8 -68.37,369.4 z m 3873.71,1037.9 c 55.02,-205.3 132.71,-392.5 231.27,-558 h -761.9 c -55.82,117.2 -102.34,244.3 -138.36,378.8 -36.02,134.4 -59.31,267.8 -69.56,397.2 l 659.82,380.9 c -2.59,-192.6 23.71,-393.6 78.73,-598.9 z m -4635.11,-1242 c -55.02,205.4 -132.71,392.5 -231.27,558.1 h 761.9 c 55.82,-117.2 102.34,-244.4 138.36,-378.8 36.03,-134.5 59.31,-267.8 69.56,-397.2 l -659.82,-381 c 2.6,192.7 -23.71,393.6 -78.73,598.9 z m 5396.51,1446 c 94.67,-353.3 242.86,-600.2 372.41,-762 h -790.24 c -108.47,169.5 -192.9,365.3 -251.17,582.8 -58.25,217.4 -83.04,429.2 -73.87,630.3 l 684.37,395.1 c -31.26,-205 -36.17,-492.9 58.5,-846.2 z m -6157.91,-1650 c -94.66,353.3 -242.85,600.2 -372.41,762.1 h 790.24 c 108.48,-169.6 192.91,-365.4 251.17,-582.8 58.25,-217.5 83.04,-429.2 73.88,-630.3 l -684.37,-395.1 c 31.26,204.9 36.16,492.8 -58.51,846.1 z m 6919.31,1854 c 142.83,-533 403.25,-826.3 567.65,-966 h -831.58 c -132.92,149.6 -301.76,401.2 -405.07,786.8 -103.3,385.5 -82.92,687.9 -42.6,883.9 l 720.14,415.8 c -72.42,-203.2 -151.36,-587.4 -8.54,-1120.5 z m 834.15,-966 h -107.8 c -44.4,29.5 -128.3,92 -223.2,197.5 -128.8,143.2 -304.58,397.1 -410.74,793.3 -171.1,638.6 -4.47,1056.8 53.85,1175.2 l 93.12,53.8 c 30.11,17.3 40.43,55.8 23.05,86 -17.4,30.1 -55.9,40.4 -86.01,23 l -93.34,-53.9 c -131.55,8.3 -575.36,72 -1044.45,541.1 -467.44,467.4 -532.26,912.9 -540.97,1044.7 l 53.77,93.1 c 17.38,30.1 7.07,68.6 -23.05,86 -30.12,17.4 -68.62,7.1 -86,-23 l -53.9,-93.4 c -47.74,-23.7 -143.9,-65.1 -282.66,-94.5 -188.43,-40 -496.2,-65.3 -892.4,40.9 -638.51,171.1 -917.39,524.5 -990.81,634.2 v 107.5 c 0,34.8 -28.19,63 -62.96,63 -34.77,0 -62.96,-28.2 -62.96,-63 v -107.8 c -29.48,-44.4 -92.06,-128.3 -197.53,-223.2 -143.22,-128.7 -397.1,-304.6 -793.29,-410.7 -638.54,-171.1 -1056.74,-4.5 -1175.18,53.8 l -53.78,93.2 c -17.39,30.1 -55.89,40.4 -86,23 -30.11,-17.4 -40.43,-55.9 -23.05,-86 l 53.77,-93.1 c -8.71,-131.8 -73.53,-577.3 -540.97,-1044.7 -467.44,-467.4 -912.93,-532.3 -1044.66,-541 l -93.13,53.8 c -30.13,17.4 -68.61,7.1 -86,-23 -17.39,-30.2 -7.07,-68.7 23.04,-86 l 93.34,-53.9 c 23.73,-47.8 65.13,-143.9 94.54,-282.7 39.93,-188.4 65.25,-496.2 -40.91,-892.4 -171.1,-638.5 -524.49,-917.4 -634.22,-990.8 h -107.53 c -34.77,0 -62.96,-28.2 -62.96,-63 0,-34.8 28.19,-62.9 62.96,-62.9 h 107.78 c 44.41,-29.5 128.36,-92.1 223.21,-197.6 128.79,-143.2 304.6,-397.1 410.76,-793.3 171.1,-638.5 4.49,-1056.7 -53.84,-1175.2 l -93.13,-53.7 c -30.11,-17.4 -40.43,-55.9 -23.04,-86 11.66,-20.2 32.82,-31.5 54.58,-31.5 10.68,0 21.51,2.7 31.42,8.4 l 93.38,53.9 c 131.59,-8.3 575.39,-72 1044.41,-541.1 467.45,-467.4 532.26,-912.9 540.97,-1044.6 l -53.77,-93.2 c -17.38,-30.1 -7.06,-68.6 23.05,-86 9.92,-5.7 20.74,-8.4 31.42,-8.4 21.76,0 42.92,11.3 54.58,31.5 l 53.9,93.3 c 47.74,23.8 143.91,65.2 282.66,94.6 188.43,39.9 496.19,65.2 892.4,-40.9 638.52,-171.1 917.4,-524.5 990.82,-634.3 v -107.5 c 0,-34.8 28.19,-62.998 62.96,-62.998 34.77,0 62.96,28.198 62.96,62.998 v 107.8 c 29.48,44.4 92.06,128.3 197.53,223.2 143.21,128.8 397.09,304.6 793.29,410.8 638.52,171.1 1056.73,4.4 1175.17,-53.9 l 53.78,-93.1 c 11.66,-20.2 32.82,-31.5 54.58,-31.5 10.68,0 21.51,2.7 31.42,8.4 30.12,17.4 40.43,55.9 23.05,86 l -53.77,93.2 c 8.71,131.7 73.53,577.2 540.97,1044.6 467.39,467.4 912.88,532.3 1044.64,541 l 93.15,-53.8 c 9.92,-5.7 20.74,-8.4 31.42,-8.4 21.76,0 42.92,11.3 54.59,31.5 17.38,30.1 7.06,68.6 -23.05,86 l -93.35,53.9 c -23.72,47.7 -65.12,143.9 -94.53,282.6 -39.93,188.5 -65.25,496.2 40.91,892.4 171.1,638.6 524.54,917.4 634.24,990.9 h 107.5 c 34.8,0 63,28.1 63,62.9 0,34.8 -28.2,63 -63,63" -->
      <!--    style="fill:#000000;fill-opacity:1;fill-rule:nonzero;stroke:none" -->
      <!--    id="path18" /> -->
      <!-- <path -->
      <!--    d="m 20313.4,9568.9 c -443.6,-489.8 -668.2,-1083.5 -778.6,-1495.3 -199.9,-746 -150.2,-1327.6 -73.3,-1684.1 32.1,-148.8 71,-271.3 107.3,-366.6 l -1366.7,789 c -72.4,355.9 -108.2,902.5 78.1,1597.9 186.4,695.4 490.6,1150.8 731.3,1422.8 h 1578.1 c -79.1,-64.4 -174.1,-151 -276.2,-263.7 z M 19097.7,5759.4 c -347.2,-111.7 -875.7,-359.5 -1421.8,-905.6 -546.2,-546.2 -794,-1074.7 -905.7,-1421.9 -46.5,-144.8 -74.1,-270.4 -90.3,-371.1 l -789,1366.6 c 115.1,344.5 357.4,835.7 866.5,1344.8 509.1,509.1 1000.2,751.3 1344.7,866.6 l 1366.6,-789.1 c -100.6,-16.2 -226.2,-43.7 -371,-90.3 z M 16140.2,3068.1 c -646,139.3 -1272.4,37 -1684.2,-73.3 -746.1,-199.9 -1224.9,-533.7 -1495.2,-778.6 -112.8,-102.1 -199.4,-197.1 -263.8,-276.1 v 1578 c 272,240.7 727.4,545 1422.8,731.3 695.4,186.3 1241.9,150.6 1597.8,78.1 l 789,-1366.6 c -95.2,36.2 -217.8,75.2 -366.4,107.2 z m 635.6,4567.3 c -16.5,364.3 28.4,748 133.9,1141.6 105.5,393.7 258.4,748.4 454.9,1055.6 h 1489.2 c -236.8,-288.2 -514.3,-737.9 -689.5,-1391.7 -175.2,-653.9 -159.7,-1182 -98.7,-1550.1 z M 15067.4,5853.8 c 167.9,323.8 398.6,633.5 686.7,921.7 288.2,288.2 597.9,518.8 921.7,686.7 l 1289.7,-744.6 C 17616.2,6586.4 17151.2,6335.7 16672.6,5857.1 16193.9,5378.4 15943.2,4913.3 15812,4564 Z M 12697,5165.1 c 307.3,196.4 661.9,349.3 1055.6,454.8 393.6,105.5 777.2,150.4 1141.6,133.9 l 744.6,-1289.7 c -368.1,61 -896.3,76.4 -1550,-98.8 C 13435,4190.1 12985.3,3912.7 12697,3675.8 Z m 585.6,3380.1 c -98.3,-19.2 -197.2,-42 -295.5,-68.3 -98.4,-26.4 -195.5,-56.1 -290.1,-88.6 v 1171.1 z m 770.2,997.4 c -26.4,-98.4 -49.2,-197.4 -68.4,-295.6 l -1014.3,585.6 h 1171.2 c -32.5,-94.6 -62.2,-191.7 -88.5,-290 z m 227.7,-2325.9 c 133.6,194.5 291.5,383.3 470.3,562.1 178.9,178.8 367.6,336.7 562.1,470.3 l 1240.4,-716.2 c -310.3,-169.9 -607.1,-395.6 -884,-672.5 -277,-277 -502.7,-573.8 -672.6,-884.2 z m -1583.5,-478 c 213,101.6 444,186.3 688.4,251.7 244.3,65.5 486.7,107.8 721.9,126.3 l 716.2,-1240.5 c -353.8,8 -723.7,-39 -1102,-140.4 -378.3,-101.3 -722.1,-245.6 -1024.5,-429.3 z m 1344,492.8 c -224.6,-21.2 -454.9,-63.1 -686.7,-125.2 -231.8,-62.1 -452.2,-140.9 -657.3,-235 v 1389.9 c 104.2,37 211.9,70.5 321.1,99.7 109.3,29.3 219.2,54.1 328,74.2 z m -378.3,1635.4 c -72,-72 -141.2,-146.3 -206.9,-221.7 l -585.5,1014.1 1014.1,-585.5 c -75.5,-65.7 -149.7,-134.9 -221.7,-206.9 z m 1535.4,-551.6 c -183.9,-130.5 -362.5,-282 -532.1,-451.7 -169.7,-169.6 -321.2,-348.2 -451.7,-532.2 l -695,1203.7 c 71.8,84.2 148.2,167 228.2,247 80,80 162.8,156.4 247,228.2 z m 2025.1,1517.3 c -183.8,-302.3 -328,-646.2 -429.4,-1024.5 -101.4,-378.4 -148.4,-748.3 -140.4,-1102 l -1240.5,716.2 c 18.5,235.2 60.8,477.7 126.3,722 65.5,244.3 150.1,475.4 251.7,688.3 z m -1564.9,0 c -94,-205.1 -172.9,-425.5 -235,-657.3 -62.1,-231.8 -104,-462.1 -125.1,-686.8 l -1203.7,695 c 20.1,108.7 44.9,218.7 74.2,328 29.3,109.3 62.8,216.9 99.7,321.1 z m 5352.8,200 h -8414.2 c -0.1,0 -0.2,0 -0.3,0 -0.4,0 -0.7,0 -1,0 -37.8,-0.6 -72.6,-22.9 -89,-57.2 -6.1,-12.9 -9.7,-27.4 -9.7,-42.8 0,-1.5 0,-2.9 0.1,-4.4 V 1518.5 c 0,-55.2 44.8,-100 100,-100 55.2,0 100,44.8 100,100 v 221 c 56.9,83.7 168.3,229.1 349.2,392.2 471.3,424.7 1043.7,640.7 1440.8,747.2 719.7,192.8 1278.9,146.3 1621.4,73.3 238.2,-50.7 407.4,-120.9 498.5,-165 l 110.5,-191.5 c 18.6,-32 52.2,-50 86.7,-50 17,0 34.2,4.3 49.9,13.4 47.9,27.7 64.3,88.8 36.6,136.6 l -110.4,191.4 c 7.4,100.9 31.1,282.6 106.3,514.4 108.1,333 347.4,840.6 874.2,1367.4 526.8,526.8 1034.4,766.2 1367.5,874.2 231.7,75.2 413.3,98.9 514.3,106.3 l 191.3,-110.5 c 15.8,-9.1 33,-13.4 50,-13.4 34.5,0 68.1,18 86.7,50 27.6,47.9 11.2,109 -36.7,136.6 l -191.1,110.4 c -112.6,233.6 -396.6,983.1 -91.9,2120.1 192.8,719.6 512.7,1180.7 747.1,1440.8 163.1,181 308.5,292.4 392.3,349.2 h 220.9 c 55.3,0 100,44.8 100,100 0,55.3 -44.7,100 -100,100" -->
      <!--    style="fill:#000000;fill-opacity:1;fill-rule:nonzero;stroke:none" -->
      <!--    id="path20" /> -->
    </g>
  </g>
</svg>
